<svg width="24" height="24" viewBox="0 0 24 24" fill="none" xmlns="http://www.w3.org/2000/svg">
  <!-- 基础文件夹轮廓 -->
  <path d="M4 4H9.5L11.5 6H20C21.1046 6 22 6.89543 22 8V18C22 19.1046 21.1046 20 20 20H4C2.89543 20 2 19.1046 2 18V6C2 4.89543 2.89543 4 4 4ZM4 6V18H20V8H10.882L8.882 6H4Z" fill="#C5C5C5"/>
  <!-- 内部叠缀的识别系 Tag 短签，并带有一个穿孔圆孔 -->
  <path fill-rule="evenodd" clip-rule="evenodd" d="M15 10L20 15L17.5 17.5L12.5 12.5V10H15ZM14.125 11.5C14.4702 11.5 14.75 11.2202 14.75 10.875C14.75 10.5298 14.4702 10.25 14.125 10.25C13.7798 10.25 13.5 10.5298 13.5 10.875C13.5 11.2202 13.7798 11.5 14.125 11.5Z" fill="#C5C5C5"/>
</svg>
